<svg xml:space="preserve" style="enable-background:new 0 0 1200 1200;" viewBox="0 0 1200 1200" y="0px" x="0px" xmlns:xlink="http://www.w3.org/1999/xlink" xmlns="http://www.w3.org/2000/svg" id="小恶" version="1.1">
<style type="text/css">
	.st0{fill:#CEC3F7;}
	.st1{clip-path:url(#SVGID_2_);}
	.st2{fill:#7743E3;}
	.st3{fill:#7F47F0;}
	.st4{clip-path:url(#SVGID_4_);fill:#7F47F0;}
	.st5{clip-path:url(#SVGID_4_);}
	.st6{fill:#5E33AA;}
	.st7{fill-rule:evenodd;clip-rule:evenodd;fill:#1BFCC6;}
	.st8{opacity:0.35;clip-path:url(#SVGID_6_);}
	.st9{fill:#3C24B3;}
	.st10{fill:#2FB2C1;}
	.st11{opacity:0.3;fill:#1D0B09;}
	.st12{fill:#FFD219;}
	.st13{fill:#112033;}
	.st14{opacity:0.3;clip-path:url(#SVGID_4_);fill:#1D0B09;}
	.st15{opacity:0.3;clip-path:url(#SVGID_4_);}
	.st16{fill-rule:evenodd;clip-rule:evenodd;fill:#FFFFFF;}
	.st17{opacity:0.8;clip-path:url(#SVGID_4_);fill:#FFFFFF;}
	.st18{fill:#FCD514;}
	.st19{fill:#FFFFFF;}
	.st20{fill:#211A33;}
	.st21{clip-path:url(#SVGID_8_);fill:#211A33;}
	.st22{clip-path:url(#SVGID_8_);fill:#FFFFFF;}
</style>
<rect height="1200" width="1200" class="st0"></rect>
<g>
	<defs>
		<rect height="1200" width="1200" id="SVGID_1_"></rect>
	</defs>
	<clipPath id="SVGID_2_">
		<use style="overflow:visible;" xlink:href="#SVGID_1_"></use>
	</clipPath>
	<g class="st1" id="head_2_">
		<path d="M149.32,392.86c-1.97,0.88-3.75-1.55-2.31-3.16L259.6,264.27c2.53-2.81,6.42-3.96,10.07-2.97l102.65,27.91
			c1.81,0.49,2.01,2.99,0.29,3.76L149.32,392.86z" class="st2"></path>
		<path d="M1037.5,354.39c2.2,0.45,3.36-2.5,1.44-3.67l-147.76-90.16c-6.25-3.89-13.15-6.6-20.38-7.99l-484.68-93.3
			c-2.08-0.4-3.27,2.28-1.59,3.56c0,0,65.47,53.1,87.25,71.1c5.76,4.62,12.78,6.77,24.87,9.42
			C584.34,261.36,966.88,339.9,1037.5,354.39z" class="st3"></path>
		<g>
			<defs>
				<path d="M768.99,915.76l262.55-64.24c8.92-2.18,15.21-10.16,15.25-19.34l1.89-460.54
					c0.02-5.76-4.05-10.73-9.71-11.83L495.21,254.1c-8.12-1.58-16.53-0.6-24.07,2.8L147.94,398.54c-4.38,1.92-7.2,6.26-7.18,11.04
					l1.89,439.86c0.04,9.96,7.4,18.36,17.26,19.73l209.23,28.89l361.67,26L768.99,915.76z" id="SVGID_3_"></path>
			</defs>
			<clipPath id="SVGID_4_">
				<use style="overflow:visible;" xlink:href="#SVGID_3_"></use>
			</clipPath>
			<path d="M758.99,924.76l285.82-66.74c2.08-0.52,3.92-12.22,3.92-12.22V360.7L495.21,253.1
				c-8.12-1.58-16.53-0.6-24.07,2.8l-330.41,144.8v475.1l230.42,28.27L758.99,924.76z" class="st4"></path>
			<g class="st5">
				<g>
					<path d="M777.46,716.15c-17.05,0-34.62-0.95-52.37-3.2c-2.59-0.33-4.42-2.69-4.09-5.28
						c0.33-2.59,2.68-4.42,5.28-4.09c81.56,10.32,159.46-7.23,198.64-18.6c2.5-0.73,5.13,0.71,5.85,3.22
						c0.73,2.5-0.71,5.13-3.22,5.85C896.17,703.16,840.37,716.15,777.46,716.15z" class="st6"></path>
					<path d="M777.46,716.65c-17.99,0-35.63-1.08-52.44-3.2c-2.86-0.36-4.89-2.98-4.53-5.84
						c0.36-2.85,2.97-4.89,5.84-4.53c81.47,10.3,159.3-7.22,198.44-18.59c2.76-0.8,5.67,0.79,6.47,3.56
						c0.39,1.34,0.23,2.75-0.44,3.97c-0.67,1.22-1.78,2.11-3.12,2.5C899.23,702.79,841.87,716.65,777.46,716.65z" class="st6"></path>
				</g>
				<path d="M956,651.17l-141.64-26.15L576,595.18c0,0,18.39,63.26,139.34,80.71C839.23,693.76,956,651.17,956,651.17z" class="st7"></path>
				<g>
					<defs>
						<path d="M956,651.17l-141.64-26.15L576,595.18c0,0,18.39,63.26,139.34,80.71
							C839.23,693.76,956,651.17,956,651.17z" id="SVGID_5_"></path>
					</defs>
					<clipPath id="SVGID_6_">
						<use style="overflow:visible;" xlink:href="#SVGID_5_"></use>
					</clipPath>
					<g class="st8">
						
							<rect height="10" width="68.75" class="st9" transform="matrix(0.3633 -0.9317 0.9317 0.3633 -149.2569 1076.552)" y="642.47" x="678.61"></rect>
						
							<rect height="72.82" width="10" class="st9" transform="matrix(0.9711 -0.2385 0.2385 0.9711 -133.5877 196.4433)" y="613.73" x="739.81"></rect>
						
							<rect height="10" width="73.38" class="st9" transform="matrix(0.2975 -0.9547 0.9547 0.2975 -80.7946 1199.1389)" y="649.47" x="737.72"></rect>
						
							<rect height="68.56" width="10" class="st9" transform="matrix(0.9831 -0.1829 0.1829 0.9831 -106.4016 157.7692)" y="621.52" x="797.23"></rect>
						
							<rect height="10" width="63.32" class="st9" transform="matrix(0.3633 -0.9317 0.9317 0.3633 -82.6938 1191.001)" y="651" x="798.34"></rect>
						
							<rect height="51.8" width="10" class="st9" transform="matrix(0.9798 -0.1998 0.1998 0.9798 -113.8058 184.5214)" y="630.22" x="852.32"></rect>
						
							<rect height="10" width="50.81" class="st9" transform="matrix(0.3582 -0.9336 0.9336 0.3582 -53.3511 1245.9474)" y="656.78" x="854.2"></rect>
						
							<rect height="34.2" width="10" class="st9" transform="matrix(0.9779 -0.209 0.209 0.9779 -117.3133 203.446)" y="639.68" x="898.93"></rect>
						
							<rect height="10" width="21.55" class="st9" transform="matrix(0.3144 -0.9493 0.9493 0.3144 9.0266 1325.04)" y="651.27" x="911.11"></rect>
						
							<rect height="72.32" width="10" class="st9" transform="matrix(0.98 -0.1992 0.1992 0.98 -114.5388 148.4878)" y="607.41" x="675.8"></rect>
						
							<rect height="10" width="43.4" class="st9" transform="matrix(0.3363 -0.9417 0.9417 0.3363 -181.481 979.6076)" y="613.57" x="582.6"></rect>
					</g>
				</g>
				<path d="M639.71,675.81c-0.08,0-0.16,0-0.23-0.01c-2.19-0.1-4.06-1.62-4.61-3.75l-17.7-68.81l9.68-2.49
					l13.65,53.06l17.8-49.54l9.41,3.38l-23.3,64.84C643.69,674.49,641.81,675.81,639.71,675.81z" class="st10"></path>
				<g>
					<path d="M978,660.76c-0.48,0-0.96-0.06-1.44-0.19c-29.29-7.93-114.41-26.05-226.9-37.81
						c-141.87-14.84-172.44-26.37-173.67-26.86c-2.83-1.11-4.22-4.3-3.11-7.13c1.11-2.83,4.3-4.22,7.13-3.11
						c10.34,3.95,59.38,14.51,170.79,26.16c104.94,10.97,179.48,26.51,211.36,33.9l-14.5-16.31c-2.02-2.27-1.81-5.75,0.46-7.76
						c2.27-2.02,5.75-1.81,7.76,0.46l26.23,29.51c1.62,1.82,1.85,4.48,0.57,6.55C981.66,659.8,979.87,660.76,978,660.76z" class="st6"></path>
					<path d="M978,661.26c-0.53,0-1.06-0.07-1.57-0.21c-29.28-7.93-114.36-26.04-226.83-37.8
						c-141.93-14.84-172.56-26.4-173.8-26.89c-1.49-0.59-2.67-1.72-3.31-3.19c-0.64-1.47-0.67-3.1-0.08-4.59
						c1.21-3.08,4.7-4.6,7.78-3.39c10.33,3.94,59.3,14.48,170.66,26.12c101.83,10.65,174.68,25.45,209.89,33.56l-13.46-15.14
						c-1.06-1.2-1.6-2.74-1.51-4.34c0.09-1.6,0.81-3.07,2-4.13c1.2-1.06,2.73-1.6,4.34-1.51c1.6,0.09,3.07,0.81,4.13,2l26.23,29.51
						c1.75,1.97,2,4.91,0.62,7.14C982,660.19,980.09,661.26,978,661.26z" class="st6"></path>
				</g>
			</g>
			<g class="st5">
				<path d="M643.25,552.73c-20.47,0-37.06-16.59-37.06-37.06v-21.88c0-20.47,16.59-37.06,37.06-37.06
					s37.06,16.59,37.06,37.06v21.88C680.31,536.13,663.72,552.73,643.25,552.73z" class="st11"></path>
				<path d="M643.25,536.12c-12.43,0-22.5-10.07-22.5-22.5v-16.5c0-12.43,10.07-22.5,22.5-22.5s22.5,10.07,22.5,22.5
					v16.5C665.75,526.05,655.68,536.12,643.25,536.12z" class="st12"></path>
				<path d="M643.25,521.37c-5.82,0-10.54-5.24-10.54-11.71v-8.59c0-6.47,4.72-11.71,10.54-11.71
					s10.54,5.24,10.54,11.71v8.59C653.79,516.13,649.07,521.37,643.25,521.37z" class="st13"></path>
			</g>
			<g class="st5">
				<path d="M925.44,604.15c-20.09,0-36.38-16.29-36.38-36.38v-21.92c0-20.09,16.29-36.38,36.38-36.38
					c20.09,0,36.38,16.29,36.38,36.38v21.92C961.82,587.86,945.54,604.15,925.44,604.15z" class="st11"></path>
				<path d="M925.44,587.63c-12.01,0-21.75-9.74-21.75-21.75v-16.5c0-12.01,9.74-21.75,21.75-21.75
					s21.75,9.74,21.75,21.75v16.5C947.19,577.89,937.46,587.63,925.44,587.63z" class="st12"></path>
				<path d="M925.44,573.01c-5.17,0-9.36-4.65-9.36-10.39v-9.96c0-5.74,4.19-10.39,9.36-10.39
					c5.17,0,9.36,4.65,9.36,10.39v9.96C934.8,568.35,930.61,573.01,925.44,573.01z" class="st13"></path>
			</g>
			<path d="M382.87,901.77L158.3,870.14c-6.19-0.87-7.09-9.44-1.21-11.58l311.26-113.18
				c10.01-3.66,20.81-4.56,31.29-2.62l532.63,97.97c6.21,1.14,6.67,9.86,0.62,11.65l-29.21,8.64l-265.85,65.24L382.87,901.77z" class="st14"></path>
			<g class="st15">
				<path d="M280.04,382.58v39.12c0,1.43,1.44,2.41,2.78,1.89l29.31-11.58c0.77-0.31,1.28-1.05,1.28-1.89v-40.01
					c0-1.46-1.49-2.44-2.83-1.87l-29.31,12.48C280.53,381.04,280.04,381.77,280.04,382.58z" class="st16"></path>
				<path d="M230.8,444.15l29.33-11.59c0.77-0.3,1.28-1.05,1.28-1.88v-38.45c0-1.45-1.48-2.42-2.81-1.86l-29.33,12.49
					c-0.74,0.32-1.23,1.05-1.23,1.86v37.56C228.04,443.7,229.48,444.68,230.8,444.15z" class="st16"></path>
				<path d="M179.79,464.31l29.35-11.6c0.77-0.3,1.27-1.04,1.27-1.87v-36.92c0-1.44-1.47-2.41-2.8-1.85l-29.35,12.49
					c-0.74,0.32-1.22,1.04-1.22,1.85v36.02C177.04,463.86,178.47,464.84,179.79,464.31z" class="st16"></path>
			</g>
			<path d="M483.98,698.86c-2.49,0-4.5-2.01-4.5-4.5V284.25c0-2.49,2.01-4.5,4.5-4.5s4.5,2.01,4.5,4.5v410.11
				C488.48,696.84,486.46,698.86,483.98,698.86z" class="st17"></path>
		</g>
		<path d="M579.86,196.31l107.92,89.48c2.24,1.9,3.53,4.69,3.53,7.63l2,147.85c0,3.19,3.55,5.09,6.21,3.34l39.32-26
			c1.66-1.1,3.87-0.81,5.19,0.67l37.24,41.68c1.39,1.55,3.73,1.78,5.4,0.53l35.46-26.81c1.52-1.15,3.63-1.07,5.05,0.19l48.51,42.66
			c2.65,2.33,6.79,0.34,6.64-3.18l-5.4-146.03c-0.13-2.92-1.52-5.64-3.83-7.44l-117.61-89.34c-2.47-1.88-5.35-3.15-8.4-3.73
			L579.86,196.31z" class="st18"></path>
		<path d="M433.48,140.62l-11.91-81.77c-0.48-3.27,3.18-5.53,5.89-3.65l51.41,35.59c1.62,1.12,3.82,0.81,5.07-0.71
			l38.22-46.53c1.55-1.88,4.45-1.83,5.93,0.11l40.05,52.56c1.31,1.72,3.8,1.99,5.45,0.59l51.72-43.76c2.53-2.14,6.39-0.23,6.22,3.08
			l-5.63,109.4c-0.29,5.57-5.31,9.68-10.82,8.86L441.44,148.6C437.32,147.99,434.08,144.75,433.48,140.62z" class="st18"></path>
		<path d="M256.24,677.45c-0.35,0-0.7-0.04-1.05-0.12c-27.97-6.67-40.62-27.68-41.14-28.57
			c-1.26-2.14-0.55-4.9,1.59-6.16c2.14-1.26,4.9-0.55,6.16,1.59c0.1,0.17,11.36,18.63,35.48,24.38c2.42,0.58,3.91,3,3.33,5.42
			C260.12,676.06,258.28,677.45,256.24,677.45z" class="st19"></path>
		<path d="M277.77,656.81c-0.29,0-0.59-0.03-0.89-0.09c-44.84-9.04-57.34-49.31-57.85-51.02
			c-0.71-2.38,0.64-4.89,3.03-5.6c2.38-0.71,4.89,0.64,5.6,3.03c0.45,1.49,11.57,36.82,51,44.77c2.44,0.49,4.01,2.86,3.52,5.3
			C281.75,655.33,279.87,656.81,277.77,656.81z" class="st19"></path>
		<path d="M450.09,255.14C395.21,244.82,297.02,212.99,268,116c-6.21-20.73,2.86-33.45-7.82-40.1
			c-31.91-19.86-92.85,12.34-135.53,48.66c-29.77,25.33-49.26,53.07-55.14,63.33c-0.87,1.52,0.5,3.34,2.21,2.93
			c20.61-5,102.86-22.85,127.28,4.19c22.99,25.46-16.73,79.91-31.67,98.57c-1.29,1.62,0.43,3.88,2.33,3.07
			C194.71,285.97,274.03,254.57,300,273c15.35,10.9,14.51,29.15,9.76,44.8c-2.09,3.41-4.04,7.03-5.81,10.89
			c-9.52,20.8-12.25,44.66-8.12,70.89c4.42,28.08,16.93,59.23,37.19,92.56c22.58,37.17,30.77,67.94,21.89,82.31
			c-6.93,11.23-24.63,13.45-30.3,12.98c-7.75-0.63-13.56-3.61-18.47-9.53c-0.55-0.66-0.05-1.68,0.81-1.64
			c2.54,0.13,5.54,0.08,9.06-0.27c10-1,14-5,17.87-8.34C336.83,565.1,341,565,341,565s3,0-4-7c-8-8-28-14-64-12
			c-15.81,0-24.06-3.31-27.67-5.38c-1.21-0.69-2.73-0.01-2.97,1.36c-1.6,9.12-3.96,37.59,21.64,64.01
			c23.46,24.22,42.35,27.82,50.14,28.13c1.66,0.07,2.66-1.81,1.7-3.16L313,627c-3.2-4.48-2.31-11.82-3.08-20.97
			c-0.06-0.73,0.64-1.27,1.33-1.04c3.68,1.25,7.59,2.05,11.73,2.38c1.05,0.09,2.18,0.13,3.37,0.13c13.48,0,35.19-5.72,45.58-22.54
			c13.48-21.84,5.93-57.53-21.82-103.2c-18.9-31.1-30.51-59.79-34.52-85.28c-3.51-22.29-1.3-42.3,6.55-59.47
			c5.12-11.2,12.11-19.91,19.5-26.6c4.65-4.21,9.98-7.58,15.71-10.11c34.81-15.35,77.98-34.43,93.2-41.39
			C452.32,258.11,452,255.5,450.09,255.14z" class="st20"></path>
	</g>
	<g class="st1" id="body_2_">
		<polygon points="737.73,1159.86 742.72,1209.87 827.72,1209.87 821.73,1157.86" class="st3"></polygon>
		<g>
			<defs>
				<path d="M739.06,1164.5l3.77,41.01c0.22,2.34-1.63,4.37-3.98,4.37h-462.2c-2.19,0-3.97-1.75-4-3.94
					c-0.59-40.51,2.11-380.14,257.09-380.14c112.29,0,191.89,42.5,243.72,101.46c75.69,86.11,94.56,204.63,97.74,229.08
					c0.31,2.4-1.55,4.52-3.97,4.52h-174.5l42.35,0C737.14,1160.86,738.87,1162.44,739.06,1164.5z" id="SVGID_7_"></path>
			</defs>
			<clipPath id="SVGID_8_">
				<use style="overflow:visible;" xlink:href="#SVGID_7_"></use>
			</clipPath>
			<path d="M739.06,1164.5l3.77,41.01c0.22,2.34-1.63,4.37-3.98,4.37h-462.2c-2.19,0-3.97-1.75-4-3.94
				c-0.59-40.51,2.11-380.14,257.09-380.14c112.29,0,191.89,42.5,243.72,101.46c75.69,86.11,94.56,204.63,97.74,229.08
				c0.31,2.4-1.55,4.52-3.97,4.52h-174.5l42.35,0C737.14,1160.86,738.87,1162.44,739.06,1164.5z" class="st21"></path>
			<path d="M505.08,1078.48c-8.12-13.91-16.49-27.68-24.9-41.42c-0.4-0.66-0.38-1.5,0.05-2.14
				c8.17-11.96,16.96-23.47,25.97-34.81c2.41-3.04,3.04-6.88,1.61-10.26c-1.42-3.39-4.65-5.61-8.72-5.94
				c-16.43-1.35-32.92-2.09-49.41-2.65c-0.7-0.02-1.33-0.41-1.66-1.03c-6.53-12.05-13.11-24.1-18.9-36.5
				c-1.76-3.75-5.76-6.04-10.28-5.8c-3.5,0.19-6.69,2.06-8.82,4.84c-9.56,12.47-18.32,25.54-26.84,38.75
				c-0.34,0.52-0.9,0.85-1.52,0.89c-14.03,0.85-28.06,2.19-41.99,3.95c-3.63,0.46-6.95,2.74-8.84,6.06
				c-1.89,3.33-2.01,7.09-0.3,10.04c6.73,11.61,13.5,23.2,20.27,34.78c0.33,0.57,0.36,1.27,0.06,1.86
				c-7.27,14.59-14.38,29.25-21.25,44.04c-1.62,3.47-1.34,7.24,0.72,10.06c2.02,2.77,5.35,4.13,8.94,3.7
				c0.08-0.01,0.16-0.02,0.25-0.03c13.99-1.94,27.98-3.76,42.05-5.04c0.76-0.07,1.49,0.31,1.88,0.96
				c6.95,11.75,13.75,23.57,20.42,35.48c2,3.62,5.64,5.97,9.51,6.06c0.02,0,0.03,0,0.05,0c3.79,0,7.85-2.15,9.71-5.71
				c6.6-12.59,13.83-24.83,21.14-37.03c0.37-0.62,1.05-0.99,1.78-0.96c16.82,0.75,33.63,1.71,50.43,2.82
				c3.88,0.27,7.23-1.41,8.99-4.52C507.24,1085.84,507.09,1081.91,505.08,1078.48z M495.14,997.06
				c-6.89,8.48-13.56,17.11-20.09,25.87c-0.84,1.13-2.57,1.04-3.27-0.19c-2.37-4.14-4.78-8.4-7.26-12.77
				c-2.97-5.23-5.82-10.35-8.55-15.29c-0.74-1.34,0.27-2.98,1.81-2.92c12.01,0.53,24.01,1.17,36,2.09
				C495.35,993.98,496.13,995.83,495.14,997.06z M441.35,992.21c3.96,7.09,8.24,14.63,12.84,22.43c3.98,6.75,7.81,13.26,11.59,19.44
				c0.4,0.65,0.38,1.46-0.04,2.1c-4.41,6.58-8.77,13.5-13.21,20.43c-4.78,7.47-9.51,14.98-14.19,22.52
				c-0.36,0.59-1.01,0.94-1.7,0.92c-15.74-0.32-31.22-0.06-46.93,0.93c-0.74,0.05-1.44-0.32-1.81-0.96
				c-8.25-13.91-16.4-27.86-24.43-41.89c-0.33-0.58-0.35-1.28-0.05-1.87c3.47-6.79,7.14-13.7,10.98-20.64
				c4.29-7.73,8.77-15.35,13.25-22.6c0.34-0.55,0.92-0.89,1.56-0.93c7.23-0.38,14.88-0.68,22.84-0.88c9.2-0.24,18.45-0.2,27.63-0.01
				C440.28,991.57,440.75,991.85,441.35,992.21z M419.96,951.08c4.18,9.16,8.87,18.07,13.61,26.95c0.7,1.31-0.25,2.9-1.74,2.89
				c-6.73-0.05-13.45-0.01-19.65,0.15c-4.6,0.12-9.1,0.27-13.48,0.45c-1.6,0.07-2.6-1.72-1.71-3.05
				c6.31-9.43,12.72-18.77,19.62-27.78C417.51,949.5,419.34,949.73,419.96,951.08z M342.7,996.17c9.86-1.23,19.75-2.22,29.65-2.98
				c1.59-0.12,2.65,1.6,1.83,2.97c-2.9,4.89-5.78,9.89-8.58,14.95c-2.35,4.24-4.64,8.48-6.86,12.68c-0.73,1.37-2.68,1.4-3.44,0.05
				c-4.7-8.25-9.38-16.5-14.06-24.75C340.55,997.88,341.31,996.35,342.7,996.17z M339.8,1084c5.41-11.72,11-23.34,16.69-34.93
				c0.35-0.7,1.33-0.74,1.73-0.06c6,10.26,12.03,20.5,18.08,30.73c0.36,0.61-0.03,1.4-0.74,1.47c-11.62,1.21-23.16,2.6-34.73,4.18
				C340.05,1085.48,339.47,1084.7,339.8,1084z M411.11,1119.76c-3.37-5.86-10.85-18.83-15.17-26.17c-0.75-1.27,0.12-2.88,1.59-2.96
				c10.26-0.54,20.33-0.72,30.61-0.57c1.52,0.02,2.44,1.69,1.65,2.99c-4.52,7.38-11.94,20.7-15.25,26.68
				C413.79,1121.07,411.88,1121.08,411.11,1119.76z M454.39,1080.67c-1.5-0.07-2.37-1.71-1.58-2.98c3.15-5.07,6.39-10.22,9.67-15.37
				c2.99-4.7,5.98-9.37,8.93-13.94c0.78-1.21,2.55-1.19,3.31,0.03c5.51,8.82,15.1,24.55,19.19,31.27c0.82,1.35-0.21,3.07-1.79,2.98
				C484.11,1082.21,465.1,1081.14,454.39,1080.67z" class="st22"></path>
		</g>
		<path d="M876.45,1156.86c-0.26-2.47-2.47-4.26-4.94-4.01c-0.43,0.04-43.23,4.49-86.87,5.96
			c-25.52,0.86-46.3,0.55-61.76-0.93c-25.02-2.38-29.18-7.12-29.86-8.52l-0.21-0.43l-0.29-0.38c-2.43-3.12-9.19-19.88-19.4-108.05
			c-5.65-48.84-9.63-96.09-9.67-96.56c-0.21-2.48-2.38-4.33-4.86-4.11c-2.48,0.21-4.32,2.38-4.11,4.86
			c0.04,0.47,4.02,47.84,9.69,96.83c1,8.61,1.96,16.54,2.89,23.86c-32.15-38.01-41.57-89.29-41.67-89.84
			c-0.43-2.45-2.77-4.08-5.22-3.64c-2.45,0.43-4.08,2.77-3.65,5.21c0.44,2.51,11.33,61.99,51.23,102.38
			c0.38,0.38,0.82,0.67,1.28,0.89c8.42,61.42,13.89,70.45,16.11,73.38c3.76,6.89,15.51,11.05,36.88,13.08
			c10.06,0.96,22.25,1.44,36.44,1.44c8.18,0,17.02-0.16,26.49-0.48c43.95-1.48,87.03-5.95,87.46-6
			C874.92,1161.55,876.71,1159.33,876.45,1156.86z" class="st19"></path>
	</g>
</g>
</svg>
